<svg xmlns="http://www.w3.org/2000/svg" xmlns:xlink="http://www.w3.org/1999/xlink" width="2400" zoomAndPan="magnify" viewBox="0 0 1800 299.999988" height="400" preserveAspectRatio="xMidYMid meet" version="1.0"><defs><g/></defs><g fill="#ffffff" fill-opacity="1"><g transform="translate(-12.611186, 247.924222)"><g><path d="M 140.761719 -151.957031 L 140.761719 -197.570312 L 13.992188 -197.570312 L 13.992188 0 L 61.566406 0 L 61.566406 -70.800781 L 136.285156 -70.800781 L 136.285156 -115.296875 L 61.566406 -115.296875 L 61.566406 -151.957031 Z M 140.761719 -151.957031 "/></g></g></g><g fill="#ffffff" fill-opacity="1"><g transform="translate(164.244319, 247.924222)"><g><path d="M 49.8125 -141.320312 L 48.132812 -151.398438 L 8.394531 -151.398438 L 8.394531 0 L 52.332031 0 L 52.332031 -83.953125 C 52.332031 -104.382812 68.5625 -112.777344 84.511719 -113.058594 C 89.550781 -113.058594 94.867188 -112.21875 99.34375 -110.820312 L 99.90625 -152.234375 C 94.027344 -153.636719 88.152344 -154.476562 82.835938 -154.476562 C 70.519531 -154.476562 59.605469 -150.558594 49.8125 -141.320312 Z M 49.8125 -141.320312 "/></g></g></g><g fill="#ffffff" fill-opacity="1"><g transform="translate(302.762808, 247.924222)"><g><path d="M 77.238281 -153.914062 C 27.984375 -153.914062 3.917969 -119.214844 3.917969 -77.796875 C 3.917969 -36.101562 28.824219 1.957031 76.675781 1.957031 C 91.230469 1.957031 106.0625 -2.238281 116.414062 -15.113281 L 116.414062 0 L 160.351562 0 L 160.351562 -151.398438 L 116.414062 -151.398438 L 116.414062 -135.726562 C 106.621094 -148.316406 92.070312 -153.914062 77.238281 -153.914062 Z M 81.996094 -40.296875 C 59.605469 -40.296875 48.132812 -58.488281 48.132812 -76.675781 C 48.132812 -95.148438 59.328125 -113.335938 81.996094 -113.335938 C 101.023438 -113.335938 116.414062 -96.828125 116.414062 -76.675781 C 116.414062 -56.527344 101.023438 -40.296875 81.996094 -40.296875 Z M 81.996094 -40.296875 "/></g></g></g><g fill="#ffffff" fill-opacity="1"><g transform="translate(506.482192, 247.924222)"><g><path d="M 50.933594 -136.285156 L 50.933594 -151.398438 L 6.4375 -151.398438 L 6.4375 0 L 53.171875 0 L 53.171875 -82.273438 C 53.171875 -101.585938 68.84375 -112.777344 81.996094 -112.777344 C 94.027344 -112.777344 105.5 -103.542969 105.5 -83.113281 L 105.5 0 L 150.277344 0 L 150.277344 -83.394531 C 150.558594 -121.171875 138.804688 -153.074219 95.707031 -153.636719 C 79.476562 -153.636719 61.566406 -149.71875 50.933594 -136.285156 Z M 50.933594 -136.285156 "/></g></g></g><g fill="#ffffff" fill-opacity="1"><g transform="translate(700.127597, 247.924222)"><g><path d="M 156.152344 -64.363281 L 112.496094 -64.363281 C 107.460938 -47.574219 93.75 -39.738281 80.316406 -39.738281 C 63.523438 -39.738281 46.734375 -52.050781 46.734375 -75.839844 C 46.734375 -99.625 63.523438 -111.9375 80.316406 -111.9375 C 93.75 -111.9375 107.460938 -103.824219 112.496094 -87.03125 L 156.152344 -87.03125 C 150.277344 -131.527344 115.296875 -153.355469 80.316406 -153.355469 C 41.976562 -153.355469 3.636719 -127.050781 3.636719 -75.839844 C 3.636719 -24.625 41.976562 1.679688 80.316406 1.679688 C 115.296875 1.679688 150.277344 -20.148438 156.152344 -64.363281 Z M 156.152344 -64.363281 "/></g></g></g><g fill="#ffffff" fill-opacity="1"><g transform="translate(895.731881, 247.924222)"><g><path d="M 6.15625 -184.699219 C 6.15625 -168.1875 19.589844 -160.070312 33.023438 -160.070312 C 45.894531 -160.070312 59.046875 -168.1875 59.046875 -184.699219 C 59.046875 -202.046875 45.613281 -210.445312 32.183594 -210.445312 C 19.308594 -210.445312 6.15625 -201.769531 6.15625 -184.699219 Z M 10.355469 -151.398438 L 55.128906 -151.398438 L 55.128906 0 L 10.355469 0 Z M 10.355469 -151.398438 "/></g></g></g><g fill="#ffffff" fill-opacity="1"><g transform="translate(994.514221, 247.924222)"><g><path d="M 5.597656 -102.703125 C 5.597656 -69.402344 35.261719 -58.488281 63.804688 -55.96875 C 71.082031 -55.410156 87.871094 -56.808594 87.871094 -45.894531 C 87.871094 -40.859375 80.59375 -36.660156 69.679688 -36.660156 C 59.328125 -36.660156 47.855469 -40.578125 47.574219 -50.933594 L 3.359375 -50.933594 C 3.917969 -12.3125 31.34375 3.917969 67.441406 3.917969 C 101.023438 3.917969 132.085938 -8.953125 132.085938 -47.015625 C 132.085938 -82.835938 99.90625 -96.265625 68.28125 -97.105469 C 61.847656 -97.386719 50.09375 -97.667969 50.09375 -105.5 C 50.09375 -113.617188 59.046875 -115.855469 65.484375 -115.855469 C 74.71875 -115.855469 86.472656 -115.015625 86.753906 -103.261719 L 129.007812 -103.261719 C 128.730469 -138.523438 100.464844 -155.035156 68.003906 -155.035156 C 34.140625 -155.035156 5.597656 -139.363281 5.597656 -102.703125 Z M 5.597656 -102.703125 "/></g></g></g><g fill="#ffffff" fill-opacity="1"><g transform="translate(1162.415084, 247.924222)"><g/></g></g><g fill="#ffffff" fill-opacity="1"><g transform="translate(1256.440253, 247.924222)"><g><path d="M 103.542969 -120.054688 L 52.050781 -195.890625 L 13.992188 -195.890625 L 13.992188 0 L 61.847656 0 L 61.847656 -97.386719 L 90.109375 -55.128906 L 116.695312 -55.128906 L 144.960938 -96.828125 L 144.960938 0 L 192.535156 0 L 192.535156 -195.890625 L 155.035156 -195.890625 Z M 103.542969 -120.054688 "/></g></g></g><g fill="#ffffff" fill-opacity="1"><g transform="translate(1487.862963, 247.924222)"><g><path d="M 91.507812 -195.890625 L 13.710938 -195.890625 L 13.710938 0 L 91.507812 0 C 156.152344 0 188.617188 -48.691406 188.617188 -97.667969 C 188.617188 -146.640625 156.152344 -195.890625 91.507812 -195.890625 Z M 91.507812 -45.613281 L 61.285156 -45.613281 L 61.285156 -150.558594 L 91.507812 -150.558594 C 124.53125 -150.558594 141.320312 -123.410156 141.320312 -97.667969 C 141.320312 -71.921875 124.53125 -45.613281 91.507812 -45.613281 Z M 91.507812 -45.613281 "/></g></g></g><g fill="#f6b201" fill-opacity="1"><g transform="translate(1708.640485, 247.924222)"><g><path d="M 24.066406 -48.972656 C 10.074219 -48.972656 -1.121094 -38.898438 -1.121094 -24.066406 C -1.121094 -11.753906 10.074219 0.839844 24.066406 0.839844 C 39.179688 0.839844 50.09375 -11.753906 50.09375 -24.066406 C 50.09375 -38.898438 39.179688 -48.972656 24.066406 -48.972656 Z M 24.066406 -48.972656 "/></g></g></g></svg>