<svg xmlns="http://www.w3.org/2000/svg" xmlns:xlink="http://www.w3.org/1999/xlink" width="400" zoomAndPan="magnify" viewBox="0 0 300 225" height="300" preserveAspectRatio="xMidYMid meet" version="1.0"><defs><g/></defs><g fill="#ffffff" fill-opacity="1"><g transform="translate(3.909619, 194.47404)"><g><path d="M 86.761719 -100.597656 L 43.613281 -164.144531 L 11.722656 -164.144531 L 11.722656 0 L 51.820312 0 L 51.820312 -81.601562 L 75.503906 -46.195312 L 97.78125 -46.195312 L 121.464844 -81.132812 L 121.464844 0 L 161.328125 0 L 161.328125 -164.144531 L 129.90625 -164.144531 Z M 86.761719 -100.597656 "/></g></g></g><g fill="#ffffff" fill-opacity="1"><g transform="translate(131.002071, 194.47404)"><g><path d="M 76.679688 -164.144531 L 11.488281 -164.144531 L 11.488281 0 L 76.679688 0 C 130.84375 0 158.046875 -40.800781 158.046875 -81.835938 C 158.046875 -122.871094 130.84375 -164.144531 76.679688 -164.144531 Z M 76.679688 -38.222656 L 51.351562 -38.222656 L 51.351562 -126.15625 L 76.679688 -126.15625 C 104.347656 -126.15625 118.417969 -103.410156 118.417969 -81.835938 C 118.417969 -60.265625 104.347656 -38.222656 76.679688 -38.222656 Z M 76.679688 -38.222656 "/></g></g></g><g fill="#151f28" fill-opacity="1"><g transform="translate(134.638353, 57.234662)"><g><path d="M 15.492188 -16.722656 L 15.492188 -21.742188 L 1.539062 -21.742188 L 1.539062 0 L 6.777344 0 L 6.777344 -7.792969 L 15 -7.792969 L 15 -12.6875 L 6.777344 -12.6875 L 6.777344 -16.722656 Z M 15.492188 -16.722656 "/></g></g></g><g fill="#151f28" fill-opacity="1"><g transform="translate(152.686315, 57.234662)"><g><path d="M 5.480469 -15.554688 L 5.296875 -16.660156 L 0.925781 -16.660156 L 0.925781 0 L 5.757812 0 L 5.757812 -9.238281 C 5.757812 -11.488281 7.546875 -12.410156 9.300781 -12.441406 C 9.855469 -12.441406 10.441406 -12.351562 10.933594 -12.195312 L 10.996094 -16.753906 C 10.347656 -16.910156 9.703125 -17 9.117188 -17 C 7.761719 -17 6.558594 -16.570312 5.480469 -15.554688 Z M 5.480469 -15.554688 "/></g></g></g><g fill="#151f28" fill-opacity="1"><g transform="translate(166.514871, 57.234662)"><g><path d="M 8.5 -16.9375 C 3.078125 -16.9375 0.429688 -13.121094 0.429688 -8.5625 C 0.429688 -3.972656 3.171875 0.214844 8.4375 0.214844 C 10.039062 0.214844 11.671875 -0.246094 12.8125 -1.664062 L 12.8125 0 L 17.648438 0 L 17.648438 -16.660156 L 12.8125 -16.660156 L 12.8125 -14.9375 C 11.734375 -16.324219 10.132812 -16.9375 8.5 -16.9375 Z M 9.023438 -4.433594 C 6.558594 -4.433594 5.296875 -6.4375 5.296875 -8.4375 C 5.296875 -10.472656 6.53125 -12.472656 9.023438 -12.472656 C 11.117188 -12.472656 12.8125 -10.65625 12.8125 -8.4375 C 12.8125 -6.222656 11.117188 -4.433594 9.023438 -4.433594 Z M 9.023438 -4.433594 "/></g></g></g><g fill="#151f28" fill-opacity="1"><g transform="translate(187.519498, 57.234662)"><g><path d="M 5.605469 -15 L 5.605469 -16.660156 L 0.707031 -16.660156 L 0.707031 0 L 5.851562 0 L 5.851562 -9.054688 C 5.851562 -11.179688 7.578125 -12.410156 9.023438 -12.410156 C 10.347656 -12.410156 11.609375 -11.394531 11.609375 -9.148438 L 11.609375 0 L 16.539062 0 L 16.539062 -9.179688 C 16.570312 -13.335938 15.277344 -16.847656 10.53125 -16.910156 C 8.746094 -16.910156 6.777344 -16.476562 5.605469 -15 Z M 5.605469 -15 "/></g></g></g><g fill="#151f28" fill-opacity="1"><g transform="translate(207.415382, 57.234662)"><g><path d="M 17.1875 -7.082031 L 12.382812 -7.082031 C 11.828125 -5.234375 10.316406 -4.375 8.839844 -4.375 C 6.992188 -4.375 5.144531 -5.730469 5.144531 -8.347656 C 5.144531 -10.964844 6.992188 -12.320312 8.839844 -12.320312 C 10.316406 -12.320312 11.828125 -11.425781 12.382812 -9.578125 L 17.1875 -9.578125 C 16.539062 -14.476562 12.6875 -16.878906 8.839844 -16.878906 C 4.621094 -16.878906 0.398438 -13.984375 0.398438 -8.347656 C 0.398438 -2.710938 4.621094 0.183594 8.839844 0.183594 C 12.6875 0.183594 16.539062 -2.21875 17.1875 -7.082031 Z M 17.1875 -7.082031 "/></g></g></g><g fill="#151f28" fill-opacity="1"><g transform="translate(227.526855, 57.234662)"><g><path d="M 0.675781 -20.328125 C 0.675781 -18.511719 2.15625 -17.617188 3.632812 -17.617188 C 5.050781 -17.617188 6.5 -18.511719 6.5 -20.328125 C 6.5 -22.238281 5.019531 -23.160156 3.542969 -23.160156 C 2.125 -23.160156 0.675781 -22.207031 0.675781 -20.328125 Z M 1.140625 -16.660156 L 6.066406 -16.660156 L 6.066406 0 L 1.140625 0 Z M 1.140625 -16.660156 "/></g></g></g><g fill="#151f28" fill-opacity="1"><g transform="translate(236.98202, 57.234662)"><g><path d="M 0.617188 -11.304688 C 0.617188 -7.636719 3.878906 -6.4375 7.023438 -6.160156 C 7.824219 -6.097656 9.671875 -6.253906 9.671875 -5.050781 C 9.671875 -4.496094 8.871094 -4.035156 7.667969 -4.035156 C 6.53125 -4.035156 5.265625 -4.464844 5.234375 -5.605469 L 0.371094 -5.605469 C 0.429688 -1.355469 3.449219 0.429688 7.421875 0.429688 C 11.117188 0.429688 14.535156 -0.984375 14.535156 -5.175781 C 14.535156 -9.117188 10.996094 -10.59375 7.515625 -10.6875 C 6.804688 -10.71875 5.511719 -10.75 5.511719 -11.609375 C 5.511719 -12.503906 6.5 -12.75 7.207031 -12.75 C 8.222656 -12.75 9.515625 -12.660156 9.546875 -11.363281 L 14.199219 -11.363281 C 14.167969 -15.246094 11.058594 -17.0625 7.484375 -17.0625 C 3.757812 -17.0625 0.617188 -15.335938 0.617188 -11.304688 Z M 0.617188 -11.304688 "/></g></g></g><g fill="#f6b201" fill-opacity="1"><g transform="translate(274.558993, 194.546876)"><g><path d="M 7.515625 -15.296875 C 3.148438 -15.296875 -0.351562 -12.148438 -0.351562 -7.515625 C -0.351562 -3.671875 3.148438 0.261719 7.515625 0.261719 C 12.238281 0.261719 15.648438 -3.671875 15.648438 -7.515625 C 15.648438 -12.148438 12.238281 -15.296875 7.515625 -15.296875 Z M 7.515625 -15.296875 "/></g></g></g></svg>