<svg xmlns="http://www.w3.org/2000/svg" xmlns:xlink="http://www.w3.org/1999/xlink" width="600" zoomAndPan="magnify" viewBox="0 0 450 449.999984" height="600" preserveAspectRatio="xMidYMid meet" version="1.0"><defs><clipPath id="bd274b186f"><path d="M 0 70.3125 L 267 70.3125 L 267 380 L 0 380 Z M 0 70.3125 " clip-rule="nonzero"/></clipPath><clipPath id="c8f7b6e9fe"><path d="M 182 70.3125 L 449 70.3125 L 449 380 L 182 380 Z M 182 70.3125 " clip-rule="nonzero"/></clipPath></defs><g clip-path="url(#bd274b186f)"><path fill="#000000" d="M 131.972656 225.1875 L 262.25 94.753906 C 263.230469 93.773438 264.046875 92.667969 264.699219 91.445312 C 265.351562 90.222656 265.816406 88.929688 266.085938 87.566406 C 266.355469 86.207031 266.421875 84.835938 266.289062 83.453125 C 266.152344 82.074219 265.816406 80.742188 265.289062 79.457031 C 264.757812 78.175781 264.050781 77 263.171875 75.925781 C 262.292969 74.851562 261.277344 73.929688 260.125 73.160156 C 258.972656 72.390625 257.734375 71.800781 256.40625 71.398438 C 255.078125 70.996094 253.722656 70.796875 252.335938 70.796875 L 154.207031 70.796875 C 152.347656 70.796875 150.558594 71.152344 148.839844 71.863281 C 147.125 72.578125 145.609375 73.589844 144.292969 74.90625 L 4.109375 215.265625 C 3.457031 215.914062 2.875 216.625 2.363281 217.390625 C 1.851562 218.15625 1.421875 218.964844 1.066406 219.816406 C 0.714844 220.667969 0.449219 221.546875 0.269531 222.449219 C 0.0898438 223.355469 0 224.265625 0 225.1875 C 0 226.109375 0.0898438 227.023438 0.269531 227.925781 C 0.449219 228.828125 0.714844 229.707031 1.066406 230.558594 C 1.421875 231.410156 1.851562 232.21875 2.363281 232.984375 C 2.875 233.75 3.457031 234.460938 4.109375 235.113281 L 144.292969 375.46875 C 145.609375 376.785156 147.125 377.800781 148.84375 378.511719 C 150.558594 379.222656 152.347656 379.578125 154.207031 379.578125 L 252.335938 379.578125 C 253.722656 379.578125 255.078125 379.378906 256.40625 378.976562 C 257.730469 378.574219 258.972656 377.984375 260.125 377.214844 C 261.277344 376.445312 262.292969 375.523438 263.171875 374.449219 C 264.050781 373.375 264.757812 372.199219 265.285156 370.914062 C 265.816406 369.632812 266.152344 368.300781 266.285156 366.921875 C 266.421875 365.539062 266.355469 364.167969 266.085938 362.808594 C 265.8125 361.445312 265.351562 360.152344 264.699219 358.929688 C 264.042969 357.703125 263.226562 356.601562 262.246094 355.621094 Z M 131.972656 225.1875 " fill-opacity="1" fill-rule="nonzero"/></g><g clip-path="url(#c8f7b6e9fe)"><path fill="#000000" d="M 314.214844 225.1875 L 444.492188 94.753906 C 445.472656 93.773438 446.289062 92.667969 446.941406 91.445312 C 447.597656 90.222656 448.058594 88.929688 448.328125 87.566406 C 448.597656 86.207031 448.667969 84.835938 448.53125 83.453125 C 448.394531 82.074219 448.0625 80.742188 447.53125 79.457031 C 447 78.175781 446.296875 77 445.417969 75.925781 C 444.535156 74.851562 443.519531 73.929688 442.367188 73.160156 C 441.214844 72.390625 439.976562 71.800781 438.648438 71.398438 C 437.324219 70.996094 435.964844 70.796875 434.578125 70.796875 L 336.449219 70.796875 C 334.589844 70.796875 332.800781 71.152344 331.085938 71.863281 C 329.367188 72.578125 327.851562 73.589844 326.539062 74.90625 L 186.351562 215.265625 C 185.699219 215.914062 185.117188 216.625 184.605469 217.390625 C 184.09375 218.15625 183.664062 218.964844 183.3125 219.816406 C 182.957031 220.667969 182.691406 221.546875 182.511719 222.449219 C 182.332031 223.355469 182.242188 224.265625 182.242188 225.1875 C 182.242188 226.109375 182.332031 227.023438 182.511719 227.925781 C 182.691406 228.828125 182.957031 229.707031 183.3125 230.558594 C 183.664062 231.410156 184.09375 232.21875 184.605469 232.984375 C 185.117188 233.75 185.699219 234.460938 186.351562 235.113281 L 326.539062 375.46875 C 327.851562 376.785156 329.367188 377.800781 331.085938 378.511719 C 332.804688 379.222656 334.589844 379.578125 336.449219 379.578125 L 434.578125 379.578125 C 435.964844 379.578125 437.320312 379.378906 438.648438 378.976562 C 439.976562 378.574219 441.214844 377.984375 442.367188 377.214844 C 443.519531 376.445312 444.535156 375.523438 445.414062 374.449219 C 446.292969 373.375 447 372.199219 447.53125 370.914062 C 448.058594 369.632812 448.394531 368.300781 448.53125 366.921875 C 448.664062 365.539062 448.597656 364.167969 448.328125 362.808594 C 448.058594 361.445312 447.59375 360.152344 446.941406 358.929688 C 446.289062 357.707031 445.472656 356.601562 444.492188 355.621094 Z M 314.214844 225.1875 " fill-opacity="1" fill-rule="nonzero"/></g></svg>